<mxfile host="app.diagrams.net" modified="2022-05-02T10:41:37.285Z" agent="5.0 (Windows NT 10.0; Win64; x64) AppleWebKit/537.36 (KHTML, like Gecko) Chrome/101.0.4951.41 Safari/537.36 Edg/101.0.1210.32" etag="W3SSxEHSBFKWtXF3Jxpk" version="17.5.0" type="github">
  <diagram id="F4rF8YPpSIRaqYhg_Sf8" name="Page-1">
    <mxGraphModel dx="1038" dy="579" grid="1" gridSize="10" guides="1" tooltips="1" connect="1" arrows="1" fold="1" page="1" pageScale="1" pageWidth="850" pageHeight="1100" math="0" shadow="0">
      <root>
        <mxCell id="0" />
        <mxCell id="1" parent="0" />
        <mxCell id="J5AI2GAW48L4zgALxvZB-3" value="whi" style="edgeStyle=orthogonalEdgeStyle;rounded=0;orthogonalLoop=1;jettySize=auto;html=1;" edge="1" parent="1" source="J5AI2GAW48L4zgALxvZB-1" target="J5AI2GAW48L4zgALxvZB-2">
          <mxGeometry relative="1" as="geometry" />
        </mxCell>
        <mxCell id="J5AI2GAW48L4zgALxvZB-1" value="start" style="rounded=1;whiteSpace=wrap;html=1;" vertex="1" parent="1">
          <mxGeometry x="80" y="30" width="90" height="30" as="geometry" />
        </mxCell>
        <mxCell id="J5AI2GAW48L4zgALxvZB-5" value="" style="edgeStyle=orthogonalEdgeStyle;rounded=0;orthogonalLoop=1;jettySize=auto;html=1;" edge="1" parent="1" source="J5AI2GAW48L4zgALxvZB-2" target="J5AI2GAW48L4zgALxvZB-4">
          <mxGeometry relative="1" as="geometry" />
        </mxCell>
        <mxCell id="J5AI2GAW48L4zgALxvZB-2" value="get the pop position and truck ppl tower nearest exit point" style="rounded=0;whiteSpace=wrap;html=1;" vertex="1" parent="1">
          <mxGeometry x="65" y="100" width="120" height="60" as="geometry" />
        </mxCell>
        <mxCell id="J5AI2GAW48L4zgALxvZB-7" value="" style="edgeStyle=orthogonalEdgeStyle;rounded=0;orthogonalLoop=1;jettySize=auto;html=1;" edge="1" parent="1" source="J5AI2GAW48L4zgALxvZB-4" target="J5AI2GAW48L4zgALxvZB-6">
          <mxGeometry relative="1" as="geometry" />
        </mxCell>
        <mxCell id="J5AI2GAW48L4zgALxvZB-4" value="set the pop grp target truck id" style="rounded=0;whiteSpace=wrap;html=1;" vertex="1" parent="1">
          <mxGeometry x="65" y="200" width="120" height="60" as="geometry" />
        </mxCell>
        <mxCell id="J5AI2GAW48L4zgALxvZB-9" value="" style="edgeStyle=orthogonalEdgeStyle;rounded=0;orthogonalLoop=1;jettySize=auto;html=1;" edge="1" parent="1" source="J5AI2GAW48L4zgALxvZB-6" target="J5AI2GAW48L4zgALxvZB-8">
          <mxGeometry relative="1" as="geometry" />
        </mxCell>
        <mxCell id="J5AI2GAW48L4zgALxvZB-6" value="Initialize the path array and set the road intersect is false" style="rounded=0;whiteSpace=wrap;html=1;" vertex="1" parent="1">
          <mxGeometry x="65" y="290" width="120" height="60" as="geometry" />
        </mxCell>
        <mxCell id="J5AI2GAW48L4zgALxvZB-11" style="edgeStyle=orthogonalEdgeStyle;rounded=0;orthogonalLoop=1;jettySize=auto;html=1;entryX=0.5;entryY=0;entryDx=0;entryDy=0;" edge="1" parent="1" source="J5AI2GAW48L4zgALxvZB-8" target="J5AI2GAW48L4zgALxvZB-10">
          <mxGeometry relative="1" as="geometry" />
        </mxCell>
        <mxCell id="J5AI2GAW48L4zgALxvZB-180" value="yes" style="edgeLabel;html=1;align=center;verticalAlign=middle;resizable=0;points=[];fontSize=12;" vertex="1" connectable="0" parent="J5AI2GAW48L4zgALxvZB-11">
          <mxGeometry x="-0.8255" y="2" relative="1" as="geometry">
            <mxPoint as="offset" />
          </mxGeometry>
        </mxCell>
        <mxCell id="J5AI2GAW48L4zgALxvZB-179" value="no" style="edgeStyle=orthogonalEdgeStyle;rounded=0;orthogonalLoop=1;jettySize=auto;html=1;fontSize=12;" edge="1" parent="1" source="J5AI2GAW48L4zgALxvZB-8" target="J5AI2GAW48L4zgALxvZB-178">
          <mxGeometry relative="1" as="geometry">
            <Array as="points">
              <mxPoint x="125" y="500" />
              <mxPoint x="125" y="500" />
            </Array>
          </mxGeometry>
        </mxCell>
        <mxCell id="J5AI2GAW48L4zgALxvZB-8" value="IF road&lt;br&gt;intersect with path" style="rhombus;whiteSpace=wrap;html=1;rounded=0;" vertex="1" parent="1">
          <mxGeometry x="85" y="390" width="80" height="80" as="geometry" />
        </mxCell>
        <mxCell id="J5AI2GAW48L4zgALxvZB-13" value="" style="edgeStyle=orthogonalEdgeStyle;rounded=0;orthogonalLoop=1;jettySize=auto;html=1;" edge="1" parent="1" source="J5AI2GAW48L4zgALxvZB-10" target="J5AI2GAW48L4zgALxvZB-12">
          <mxGeometry relative="1" as="geometry" />
        </mxCell>
        <mxCell id="J5AI2GAW48L4zgALxvZB-10" value="call&amp;nbsp;getPedestrainPath" style="rounded=1;whiteSpace=wrap;html=1;fillColor=#f8cecc;gradientColor=#ea6b66;strokeColor=#b85450;" vertex="1" parent="1">
          <mxGeometry x="240" y="40" width="120" height="60" as="geometry" />
        </mxCell>
        <mxCell id="J5AI2GAW48L4zgALxvZB-15" value="" style="edgeStyle=orthogonalEdgeStyle;rounded=0;orthogonalLoop=1;jettySize=auto;html=1;" edge="1" parent="1" source="J5AI2GAW48L4zgALxvZB-12" target="J5AI2GAW48L4zgALxvZB-14">
          <mxGeometry relative="1" as="geometry" />
        </mxCell>
        <mxCell id="J5AI2GAW48L4zgALxvZB-12" value="FOR pedestrian path&amp;nbsp;" style="rhombus;whiteSpace=wrap;html=1;" vertex="1" parent="1">
          <mxGeometry x="260" y="130" width="80" height="80" as="geometry" />
        </mxCell>
        <mxCell id="J5AI2GAW48L4zgALxvZB-17" value="yes" style="edgeStyle=orthogonalEdgeStyle;rounded=0;orthogonalLoop=1;jettySize=auto;html=1;" edge="1" parent="1" source="J5AI2GAW48L4zgALxvZB-14" target="J5AI2GAW48L4zgALxvZB-16">
          <mxGeometry relative="1" as="geometry" />
        </mxCell>
        <mxCell id="J5AI2GAW48L4zgALxvZB-21" value="" style="edgeStyle=orthogonalEdgeStyle;rounded=0;orthogonalLoop=1;jettySize=auto;html=1;" edge="1" parent="1" source="J5AI2GAW48L4zgALxvZB-14" target="J5AI2GAW48L4zgALxvZB-20">
          <mxGeometry relative="1" as="geometry" />
        </mxCell>
        <mxCell id="J5AI2GAW48L4zgALxvZB-14" value="IF index is 0 or last" style="rhombus;whiteSpace=wrap;html=1;" vertex="1" parent="1">
          <mxGeometry x="260" y="250" width="80" height="80" as="geometry" />
        </mxCell>
        <mxCell id="J5AI2GAW48L4zgALxvZB-29" style="edgeStyle=orthogonalEdgeStyle;rounded=0;orthogonalLoop=1;jettySize=auto;html=1;" edge="1" parent="1" source="J5AI2GAW48L4zgALxvZB-16">
          <mxGeometry relative="1" as="geometry">
            <mxPoint x="300" y="460" as="targetPoint" />
          </mxGeometry>
        </mxCell>
        <mxCell id="J5AI2GAW48L4zgALxvZB-16" value="user console" style="whiteSpace=wrap;html=1;" vertex="1" parent="1">
          <mxGeometry x="240" y="370" width="120" height="60" as="geometry" />
        </mxCell>
        <mxCell id="J5AI2GAW48L4zgALxvZB-27" value="" style="edgeStyle=orthogonalEdgeStyle;rounded=0;orthogonalLoop=1;jettySize=auto;html=1;" edge="1" parent="1" source="J5AI2GAW48L4zgALxvZB-20" target="J5AI2GAW48L4zgALxvZB-26">
          <mxGeometry relative="1" as="geometry" />
        </mxCell>
        <mxCell id="J5AI2GAW48L4zgALxvZB-20" value="ELSE" style="rhombus;whiteSpace=wrap;html=1;" vertex="1" parent="1">
          <mxGeometry x="385" y="250" width="80" height="80" as="geometry" />
        </mxCell>
        <mxCell id="J5AI2GAW48L4zgALxvZB-28" style="edgeStyle=orthogonalEdgeStyle;rounded=0;orthogonalLoop=1;jettySize=auto;html=1;entryX=0;entryY=0.5;entryDx=0;entryDy=0;" edge="1" parent="1" source="J5AI2GAW48L4zgALxvZB-26" target="J5AI2GAW48L4zgALxvZB-12">
          <mxGeometry relative="1" as="geometry">
            <Array as="points">
              <mxPoint x="426" y="460" />
              <mxPoint x="230" y="460" />
              <mxPoint x="230" y="170" />
            </Array>
          </mxGeometry>
        </mxCell>
        <mxCell id="J5AI2GAW48L4zgALxvZB-30" value="next pedesrian" style="edgeLabel;html=1;align=center;verticalAlign=middle;resizable=0;points=[];" vertex="1" connectable="0" parent="J5AI2GAW48L4zgALxvZB-28">
          <mxGeometry x="0.5966" y="3" relative="1" as="geometry">
            <mxPoint x="14" as="offset" />
          </mxGeometry>
        </mxCell>
        <mxCell id="J5AI2GAW48L4zgALxvZB-32" style="edgeStyle=orthogonalEdgeStyle;rounded=0;orthogonalLoop=1;jettySize=auto;html=1;entryX=0.5;entryY=0;entryDx=0;entryDy=0;" edge="1" parent="1" source="J5AI2GAW48L4zgALxvZB-26" target="J5AI2GAW48L4zgALxvZB-31">
          <mxGeometry relative="1" as="geometry">
            <Array as="points">
              <mxPoint x="426" y="460" />
              <mxPoint x="488" y="460" />
              <mxPoint x="488" y="10" />
              <mxPoint x="570" y="10" />
            </Array>
          </mxGeometry>
        </mxCell>
        <mxCell id="J5AI2GAW48L4zgALxvZB-26" value="store the pedestrian path" style="shape=dataStorage;whiteSpace=wrap;html=1;fixedSize=1;" vertex="1" parent="1">
          <mxGeometry x="383" y="370" width="85" height="70" as="geometry" />
        </mxCell>
        <mxCell id="J5AI2GAW48L4zgALxvZB-34" value="" style="edgeStyle=orthogonalEdgeStyle;rounded=0;orthogonalLoop=1;jettySize=auto;html=1;" edge="1" parent="1" source="J5AI2GAW48L4zgALxvZB-31" target="J5AI2GAW48L4zgALxvZB-33">
          <mxGeometry relative="1" as="geometry" />
        </mxCell>
        <mxCell id="J5AI2GAW48L4zgALxvZB-31" value="get the first and last pedestrian data and store into&amp;nbsp;" style="rounded=0;whiteSpace=wrap;html=1;" vertex="1" parent="1">
          <mxGeometry x="510" y="30" width="120" height="60" as="geometry" />
        </mxCell>
        <mxCell id="J5AI2GAW48L4zgALxvZB-36" value="" style="edgeStyle=orthogonalEdgeStyle;rounded=0;orthogonalLoop=1;jettySize=auto;html=1;" edge="1" parent="1" source="J5AI2GAW48L4zgALxvZB-33" target="J5AI2GAW48L4zgALxvZB-35">
          <mxGeometry relative="1" as="geometry" />
        </mxCell>
        <mxCell id="J5AI2GAW48L4zgALxvZB-33" value="FOR all stored path data" style="rhombus;whiteSpace=wrap;html=1;rounded=0;" vertex="1" parent="1">
          <mxGeometry x="530" y="120" width="80" height="80" as="geometry" />
        </mxCell>
        <mxCell id="J5AI2GAW48L4zgALxvZB-38" value="" style="edgeStyle=orthogonalEdgeStyle;rounded=0;orthogonalLoop=1;jettySize=auto;html=1;" edge="1" parent="1" source="J5AI2GAW48L4zgALxvZB-35" target="J5AI2GAW48L4zgALxvZB-37">
          <mxGeometry relative="1" as="geometry" />
        </mxCell>
        <mxCell id="J5AI2GAW48L4zgALxvZB-35" value="call&amp;nbsp;findDistance bwt current point and next point" style="rounded=1;whiteSpace=wrap;html=1;fillColor=#f8cecc;gradientColor=#ea6b66;strokeColor=#b85450;" vertex="1" parent="1">
          <mxGeometry x="510" y="230" width="120" height="60" as="geometry" />
        </mxCell>
        <mxCell id="J5AI2GAW48L4zgALxvZB-39" style="edgeStyle=orthogonalEdgeStyle;rounded=0;orthogonalLoop=1;jettySize=auto;html=1;entryX=1;entryY=0.5;entryDx=0;entryDy=0;" edge="1" parent="1" source="J5AI2GAW48L4zgALxvZB-37" target="J5AI2GAW48L4zgALxvZB-33">
          <mxGeometry relative="1" as="geometry">
            <Array as="points">
              <mxPoint x="650" y="340" />
              <mxPoint x="650" y="160" />
            </Array>
          </mxGeometry>
        </mxCell>
        <mxCell id="J5AI2GAW48L4zgALxvZB-40" value="next patht data" style="edgeLabel;html=1;align=center;verticalAlign=middle;resizable=0;points=[];" vertex="1" connectable="0" parent="J5AI2GAW48L4zgALxvZB-39">
          <mxGeometry x="0.4383" y="-4" relative="1" as="geometry">
            <mxPoint as="offset" />
          </mxGeometry>
        </mxCell>
        <mxCell id="J5AI2GAW48L4zgALxvZB-42" value="" style="edgeStyle=orthogonalEdgeStyle;rounded=0;orthogonalLoop=1;jettySize=auto;html=1;" edge="1" parent="1" source="J5AI2GAW48L4zgALxvZB-37" target="J5AI2GAW48L4zgALxvZB-41">
          <mxGeometry relative="1" as="geometry" />
        </mxCell>
        <mxCell id="J5AI2GAW48L4zgALxvZB-37" value="add distance into total and set the key against each dist" style="rounded=0;whiteSpace=wrap;html=1;" vertex="1" parent="1">
          <mxGeometry x="510" y="310" width="120" height="60" as="geometry" />
        </mxCell>
        <mxCell id="J5AI2GAW48L4zgALxvZB-44" style="edgeStyle=orthogonalEdgeStyle;rounded=0;orthogonalLoop=1;jettySize=auto;html=1;entryX=0.5;entryY=0;entryDx=0;entryDy=0;" edge="1" parent="1" source="J5AI2GAW48L4zgALxvZB-41" target="J5AI2GAW48L4zgALxvZB-43">
          <mxGeometry relative="1" as="geometry" />
        </mxCell>
        <mxCell id="J5AI2GAW48L4zgALxvZB-41" value="calculate the slap count and each slop distance" style="whiteSpace=wrap;html=1;rounded=0;" vertex="1" parent="1">
          <mxGeometry x="510" y="410" width="120" height="60" as="geometry" />
        </mxCell>
        <mxCell id="J5AI2GAW48L4zgALxvZB-46" value="" style="edgeStyle=orthogonalEdgeStyle;rounded=0;orthogonalLoop=1;jettySize=auto;html=1;" edge="1" parent="1" source="J5AI2GAW48L4zgALxvZB-43" target="J5AI2GAW48L4zgALxvZB-45">
          <mxGeometry relative="1" as="geometry" />
        </mxCell>
        <mxCell id="J5AI2GAW48L4zgALxvZB-43" value="initialize some variable and values" style="whiteSpace=wrap;html=1;rounded=0;" vertex="1" parent="1">
          <mxGeometry x="690" y="30" width="120" height="60" as="geometry" />
        </mxCell>
        <mxCell id="J5AI2GAW48L4zgALxvZB-48" value="" style="edgeStyle=orthogonalEdgeStyle;rounded=0;orthogonalLoop=1;jettySize=auto;html=1;" edge="1" parent="1" source="J5AI2GAW48L4zgALxvZB-45" target="J5AI2GAW48L4zgALxvZB-47">
          <mxGeometry relative="1" as="geometry" />
        </mxCell>
        <mxCell id="J5AI2GAW48L4zgALxvZB-45" value="WHILE total slab count &amp;gt; found slab count" style="rhombus;whiteSpace=wrap;html=1;rounded=0;" vertex="1" parent="1">
          <mxGeometry x="710" y="120" width="80" height="80" as="geometry" />
        </mxCell>
        <mxCell id="J5AI2GAW48L4zgALxvZB-50" value="" style="edgeStyle=orthogonalEdgeStyle;rounded=0;orthogonalLoop=1;jettySize=auto;html=1;" edge="1" parent="1" source="J5AI2GAW48L4zgALxvZB-47" target="J5AI2GAW48L4zgALxvZB-49">
          <mxGeometry relative="1" as="geometry" />
        </mxCell>
        <mxCell id="J5AI2GAW48L4zgALxvZB-47" value="IF each slab distance is 0" style="rhombus;whiteSpace=wrap;html=1;rounded=0;" vertex="1" parent="1">
          <mxGeometry x="710" y="230" width="80" height="90" as="geometry" />
        </mxCell>
        <mxCell id="J5AI2GAW48L4zgALxvZB-52" value="" style="edgeStyle=orthogonalEdgeStyle;rounded=0;orthogonalLoop=1;jettySize=auto;html=1;" edge="1" parent="1" source="J5AI2GAW48L4zgALxvZB-49" target="J5AI2GAW48L4zgALxvZB-51">
          <mxGeometry relative="1" as="geometry" />
        </mxCell>
        <mxCell id="J5AI2GAW48L4zgALxvZB-49" value="set the sab" style="whiteSpace=wrap;html=1;rounded=0;" vertex="1" parent="1">
          <mxGeometry x="690" y="350" width="120" height="60" as="geometry" />
        </mxCell>
        <mxCell id="J5AI2GAW48L4zgALxvZB-56" style="edgeStyle=orthogonalEdgeStyle;rounded=0;orthogonalLoop=1;jettySize=auto;html=1;entryX=0.5;entryY=0;entryDx=0;entryDy=0;" edge="1" parent="1" source="J5AI2GAW48L4zgALxvZB-51" target="J5AI2GAW48L4zgALxvZB-55">
          <mxGeometry relative="1" as="geometry">
            <Array as="points">
              <mxPoint x="830" y="480" />
              <mxPoint x="830" y="10" />
              <mxPoint x="900" y="10" />
            </Array>
          </mxGeometry>
        </mxCell>
        <mxCell id="J5AI2GAW48L4zgALxvZB-94" value="yes" style="edgeLabel;html=1;align=center;verticalAlign=middle;resizable=0;points=[];fontSize=12;" vertex="1" connectable="0" parent="J5AI2GAW48L4zgALxvZB-56">
          <mxGeometry x="-0.7393" relative="1" as="geometry">
            <mxPoint as="offset" />
          </mxGeometry>
        </mxCell>
        <mxCell id="J5AI2GAW48L4zgALxvZB-93" style="edgeStyle=orthogonalEdgeStyle;rounded=0;orthogonalLoop=1;jettySize=auto;html=1;entryX=0.5;entryY=0;entryDx=0;entryDy=0;fontSize=12;" edge="1" parent="1" source="J5AI2GAW48L4zgALxvZB-51" target="J5AI2GAW48L4zgALxvZB-91">
          <mxGeometry relative="1" as="geometry" />
        </mxCell>
        <mxCell id="J5AI2GAW48L4zgALxvZB-95" value="no" style="edgeLabel;html=1;align=center;verticalAlign=middle;resizable=0;points=[];fontSize=12;" vertex="1" connectable="0" parent="J5AI2GAW48L4zgALxvZB-93">
          <mxGeometry x="-0.8143" y="1" relative="1" as="geometry">
            <mxPoint as="offset" />
          </mxGeometry>
        </mxCell>
        <mxCell id="J5AI2GAW48L4zgALxvZB-51" value="IF each slab dist &amp;lt; remaining dd" style="rhombus;whiteSpace=wrap;html=1;rounded=0;" vertex="1" parent="1">
          <mxGeometry x="710" y="440" width="80" height="80" as="geometry" />
        </mxCell>
        <mxCell id="J5AI2GAW48L4zgALxvZB-58" value="" style="edgeStyle=orthogonalEdgeStyle;rounded=0;orthogonalLoop=1;jettySize=auto;html=1;fontSize=9;" edge="1" parent="1" source="J5AI2GAW48L4zgALxvZB-55" target="J5AI2GAW48L4zgALxvZB-57">
          <mxGeometry relative="1" as="geometry" />
        </mxCell>
        <mxCell id="J5AI2GAW48L4zgALxvZB-55" value="&lt;font style=&quot;font-size: 9px&quot;&gt;call&amp;nbsp;shortenLineDistance&lt;/font&gt;" style="rounded=1;whiteSpace=wrap;html=1;fillColor=#f8cecc;gradientColor=#ea6b66;strokeColor=#b85450;" vertex="1" parent="1">
          <mxGeometry x="840" y="30" width="120" height="60" as="geometry" />
        </mxCell>
        <mxCell id="J5AI2GAW48L4zgALxvZB-60" value="" style="edgeStyle=orthogonalEdgeStyle;rounded=0;orthogonalLoop=1;jettySize=auto;html=1;fontSize=9;" edge="1" parent="1" source="J5AI2GAW48L4zgALxvZB-57" target="J5AI2GAW48L4zgALxvZB-59">
          <mxGeometry relative="1" as="geometry" />
        </mxCell>
        <mxCell id="J5AI2GAW48L4zgALxvZB-57" value="store the point as slab" style="shape=dataStorage;whiteSpace=wrap;html=1;fixedSize=1;" vertex="1" parent="1">
          <mxGeometry x="855" y="120" width="90" height="70" as="geometry" />
        </mxCell>
        <mxCell id="J5AI2GAW48L4zgALxvZB-62" value="" style="edgeStyle=orthogonalEdgeStyle;rounded=0;orthogonalLoop=1;jettySize=auto;html=1;fontSize=9;" edge="1" parent="1" source="J5AI2GAW48L4zgALxvZB-59" target="J5AI2GAW48L4zgALxvZB-61">
          <mxGeometry relative="1" as="geometry" />
        </mxCell>
        <mxCell id="J5AI2GAW48L4zgALxvZB-59" value="increase the found slab count and get the remaining path distance" style="rounded=0;whiteSpace=wrap;html=1;fontSize=9;" vertex="1" parent="1">
          <mxGeometry x="840" y="220" width="120" height="60" as="geometry" />
        </mxCell>
        <mxCell id="J5AI2GAW48L4zgALxvZB-64" value="" style="edgeStyle=orthogonalEdgeStyle;rounded=0;orthogonalLoop=1;jettySize=auto;html=1;fontSize=9;" edge="1" parent="1" source="J5AI2GAW48L4zgALxvZB-61" target="J5AI2GAW48L4zgALxvZB-63">
          <mxGeometry relative="1" as="geometry" />
        </mxCell>
        <mxCell id="J5AI2GAW48L4zgALxvZB-61" value="IF remain dist &amp;lt; each each slab." style="rhombus;whiteSpace=wrap;html=1;fontSize=9;rounded=0;" vertex="1" parent="1">
          <mxGeometry x="860" y="310" width="80" height="80" as="geometry" />
        </mxCell>
        <mxCell id="J5AI2GAW48L4zgALxvZB-66" value="" style="edgeStyle=orthogonalEdgeStyle;rounded=0;orthogonalLoop=1;jettySize=auto;html=1;fontSize=12;" edge="1" parent="1" source="J5AI2GAW48L4zgALxvZB-63" target="J5AI2GAW48L4zgALxvZB-65">
          <mxGeometry relative="1" as="geometry">
            <Array as="points">
              <mxPoint x="970" y="460" />
              <mxPoint x="970" y="45" />
            </Array>
          </mxGeometry>
        </mxCell>
        <mxCell id="J5AI2GAW48L4zgALxvZB-63" value="&lt;font style=&quot;font-size: 12px&quot;&gt;calculate to be found remain slab&lt;/font&gt;" style="whiteSpace=wrap;html=1;fontSize=9;rounded=0;" vertex="1" parent="1">
          <mxGeometry x="840" y="430" width="120" height="60" as="geometry" />
        </mxCell>
        <mxCell id="J5AI2GAW48L4zgALxvZB-69" value="yes" style="edgeStyle=orthogonalEdgeStyle;rounded=0;orthogonalLoop=1;jettySize=auto;html=1;fontSize=12;" edge="1" parent="1" source="J5AI2GAW48L4zgALxvZB-65" target="J5AI2GAW48L4zgALxvZB-68">
          <mxGeometry relative="1" as="geometry" />
        </mxCell>
        <mxCell id="J5AI2GAW48L4zgALxvZB-87" value="no" style="edgeStyle=orthogonalEdgeStyle;rounded=0;orthogonalLoop=1;jettySize=auto;html=1;fontSize=12;" edge="1" parent="1" source="J5AI2GAW48L4zgALxvZB-65" target="J5AI2GAW48L4zgALxvZB-86">
          <mxGeometry relative="1" as="geometry" />
        </mxCell>
        <mxCell id="J5AI2GAW48L4zgALxvZB-65" value="&lt;font style=&quot;font-size: 12px&quot;&gt;IF index &amp;lt; path length&lt;/font&gt;" style="rhombus;whiteSpace=wrap;html=1;fontSize=9;rounded=0;" vertex="1" parent="1">
          <mxGeometry x="990" y="10" width="80" height="80" as="geometry" />
        </mxCell>
        <mxCell id="J5AI2GAW48L4zgALxvZB-71" value="" style="edgeStyle=orthogonalEdgeStyle;rounded=0;orthogonalLoop=1;jettySize=auto;html=1;fontSize=12;" edge="1" parent="1" source="J5AI2GAW48L4zgALxvZB-68" target="J5AI2GAW48L4zgALxvZB-70">
          <mxGeometry relative="1" as="geometry" />
        </mxCell>
        <mxCell id="J5AI2GAW48L4zgALxvZB-68" value="&lt;span style=&quot;font-size: 12px&quot;&gt;increase the index and store the way point&lt;/span&gt;" style="whiteSpace=wrap;html=1;fontSize=9;rounded=0;" vertex="1" parent="1">
          <mxGeometry x="980" y="120" width="120" height="60" as="geometry" />
        </mxCell>
        <mxCell id="J5AI2GAW48L4zgALxvZB-73" value="yes" style="edgeStyle=orthogonalEdgeStyle;rounded=0;orthogonalLoop=1;jettySize=auto;html=1;fontSize=12;" edge="1" parent="1" source="J5AI2GAW48L4zgALxvZB-70" target="J5AI2GAW48L4zgALxvZB-72">
          <mxGeometry relative="1" as="geometry" />
        </mxCell>
        <mxCell id="J5AI2GAW48L4zgALxvZB-83" value="no" style="edgeStyle=orthogonalEdgeStyle;rounded=0;orthogonalLoop=1;jettySize=auto;html=1;fontSize=12;" edge="1" parent="1" source="J5AI2GAW48L4zgALxvZB-70" target="J5AI2GAW48L4zgALxvZB-82">
          <mxGeometry relative="1" as="geometry">
            <Array as="points">
              <mxPoint x="1100" y="250" />
              <mxPoint x="1100" y="250" />
            </Array>
          </mxGeometry>
        </mxCell>
        <mxCell id="J5AI2GAW48L4zgALxvZB-70" value="&lt;span style=&quot;font-size: 12px&quot;&gt;IF pedestrain data not empty&lt;/span&gt;" style="rhombus;whiteSpace=wrap;html=1;fontSize=9;rounded=0;" vertex="1" parent="1">
          <mxGeometry x="1000" y="210" width="80" height="80" as="geometry" />
        </mxCell>
        <mxCell id="J5AI2GAW48L4zgALxvZB-75" value="" style="edgeStyle=orthogonalEdgeStyle;rounded=0;orthogonalLoop=1;jettySize=auto;html=1;fontSize=12;" edge="1" parent="1" source="J5AI2GAW48L4zgALxvZB-72" target="J5AI2GAW48L4zgALxvZB-74">
          <mxGeometry relative="1" as="geometry" />
        </mxCell>
        <mxCell id="J5AI2GAW48L4zgALxvZB-72" value="&lt;span style=&quot;font-size: 12px&quot;&gt;FOR pedestrain data&lt;/span&gt;" style="rhombus;whiteSpace=wrap;html=1;fontSize=9;rounded=0;" vertex="1" parent="1">
          <mxGeometry x="1000" y="320" width="80" height="80" as="geometry" />
        </mxCell>
        <mxCell id="J5AI2GAW48L4zgALxvZB-76" style="edgeStyle=orthogonalEdgeStyle;rounded=0;orthogonalLoop=1;jettySize=auto;html=1;entryX=1;entryY=0.5;entryDx=0;entryDy=0;fontSize=12;" edge="1" parent="1" source="J5AI2GAW48L4zgALxvZB-74" target="J5AI2GAW48L4zgALxvZB-72">
          <mxGeometry relative="1" as="geometry">
            <Array as="points">
              <mxPoint x="1120" y="460" />
              <mxPoint x="1120" y="360" />
            </Array>
          </mxGeometry>
        </mxCell>
        <mxCell id="J5AI2GAW48L4zgALxvZB-77" value="next data" style="edgeLabel;html=1;align=center;verticalAlign=middle;resizable=0;points=[];fontSize=12;" vertex="1" connectable="0" parent="J5AI2GAW48L4zgALxvZB-76">
          <mxGeometry x="0.1421" y="1" relative="1" as="geometry">
            <mxPoint as="offset" />
          </mxGeometry>
        </mxCell>
        <mxCell id="J5AI2GAW48L4zgALxvZB-79" value="" style="edgeStyle=orthogonalEdgeStyle;rounded=0;orthogonalLoop=1;jettySize=auto;html=1;fontSize=12;" edge="1" parent="1" source="J5AI2GAW48L4zgALxvZB-74" target="J5AI2GAW48L4zgALxvZB-78">
          <mxGeometry relative="1" as="geometry" />
        </mxCell>
        <mxCell id="J5AI2GAW48L4zgALxvZB-74" value="&lt;font style=&quot;font-size: 12px&quot;&gt;store the pedestrain data&lt;/font&gt;" style="whiteSpace=wrap;html=1;fontSize=9;rounded=0;" vertex="1" parent="1">
          <mxGeometry x="981" y="430" width="120" height="60" as="geometry" />
        </mxCell>
        <mxCell id="J5AI2GAW48L4zgALxvZB-78" value="set the&amp;nbsp; starting and end point and remain length is 0" style="whiteSpace=wrap;html=1;fontSize=9;rounded=0;" vertex="1" parent="1">
          <mxGeometry x="981" y="530" width="120" height="60" as="geometry" />
        </mxCell>
        <mxCell id="J5AI2GAW48L4zgALxvZB-85" value="" style="edgeStyle=orthogonalEdgeStyle;rounded=0;orthogonalLoop=1;jettySize=auto;html=1;fontSize=12;" edge="1" parent="1" source="J5AI2GAW48L4zgALxvZB-82" target="J5AI2GAW48L4zgALxvZB-84">
          <mxGeometry relative="1" as="geometry" />
        </mxCell>
        <mxCell id="J5AI2GAW48L4zgALxvZB-82" value="&lt;font style=&quot;font-size: 12px&quot;&gt;ELSE&lt;/font&gt;" style="rhombus;whiteSpace=wrap;html=1;fontSize=9;rounded=0;" vertex="1" parent="1">
          <mxGeometry x="1120" y="210" width="80" height="80" as="geometry" />
        </mxCell>
        <mxCell id="J5AI2GAW48L4zgALxvZB-84" value="&lt;font style=&quot;font-size: 12px&quot;&gt;store the path point as slab&lt;/font&gt;" style="whiteSpace=wrap;html=1;fontSize=9;rounded=0;" vertex="1" parent="1">
          <mxGeometry x="1130" y="410" width="100" height="50" as="geometry" />
        </mxCell>
        <mxCell id="J5AI2GAW48L4zgALxvZB-89" value="" style="edgeStyle=orthogonalEdgeStyle;rounded=0;orthogonalLoop=1;jettySize=auto;html=1;fontSize=12;" edge="1" parent="1" source="J5AI2GAW48L4zgALxvZB-86" target="J5AI2GAW48L4zgALxvZB-88">
          <mxGeometry relative="1" as="geometry" />
        </mxCell>
        <mxCell id="J5AI2GAW48L4zgALxvZB-86" value="&lt;font style=&quot;font-size: 12px&quot;&gt;ELSE&lt;/font&gt;" style="rhombus;whiteSpace=wrap;html=1;fontSize=9;rounded=0;" vertex="1" parent="1">
          <mxGeometry x="1130" y="10" width="80" height="80" as="geometry" />
        </mxCell>
        <mxCell id="J5AI2GAW48L4zgALxvZB-88" value="&lt;span style=&quot;font-size: 12px&quot;&gt;Set the starting point&lt;/span&gt;" style="whiteSpace=wrap;html=1;fontSize=9;rounded=0;" vertex="1" parent="1">
          <mxGeometry x="1120" y="125" width="100" height="50" as="geometry" />
        </mxCell>
        <mxCell id="J5AI2GAW48L4zgALxvZB-97" value="YES" style="edgeStyle=orthogonalEdgeStyle;rounded=0;orthogonalLoop=1;jettySize=auto;html=1;fontSize=12;" edge="1" parent="1" source="J5AI2GAW48L4zgALxvZB-91" target="J5AI2GAW48L4zgALxvZB-96">
          <mxGeometry relative="1" as="geometry" />
        </mxCell>
        <mxCell id="J5AI2GAW48L4zgALxvZB-162" style="edgeStyle=orthogonalEdgeStyle;rounded=0;orthogonalLoop=1;jettySize=auto;html=1;entryX=0.5;entryY=0;entryDx=0;entryDy=0;fontSize=12;" edge="1" parent="1" source="J5AI2GAW48L4zgALxvZB-91" target="J5AI2GAW48L4zgALxvZB-160">
          <mxGeometry relative="1" as="geometry">
            <Array as="points">
              <mxPoint x="930" y="530" />
            </Array>
          </mxGeometry>
        </mxCell>
        <mxCell id="J5AI2GAW48L4zgALxvZB-174" value="NO" style="edgeLabel;html=1;align=center;verticalAlign=middle;resizable=0;points=[];fontSize=12;" vertex="1" connectable="0" parent="J5AI2GAW48L4zgALxvZB-162">
          <mxGeometry x="-0.813" y="1" relative="1" as="geometry">
            <mxPoint as="offset" />
          </mxGeometry>
        </mxCell>
        <mxCell id="J5AI2GAW48L4zgALxvZB-91" value="ELSE IF each slab &amp;lt; next slap dis" style="rhombus;whiteSpace=wrap;html=1;fontSize=12;" vertex="1" parent="1">
          <mxGeometry x="190" y="530" width="80" height="80" as="geometry" />
        </mxCell>
        <mxCell id="J5AI2GAW48L4zgALxvZB-99" value="" style="edgeStyle=orthogonalEdgeStyle;rounded=0;orthogonalLoop=1;jettySize=auto;html=1;fontSize=12;" edge="1" parent="1" source="J5AI2GAW48L4zgALxvZB-96" target="J5AI2GAW48L4zgALxvZB-98">
          <mxGeometry relative="1" as="geometry" />
        </mxCell>
        <mxCell id="J5AI2GAW48L4zgALxvZB-96" value="&lt;font style=&quot;font-size: 9px&quot;&gt;call&amp;nbsp;shortenLineDistance&lt;/font&gt;" style="rounded=1;whiteSpace=wrap;html=1;fillColor=#f8cecc;gradientColor=#ea6b66;strokeColor=#b85450;" vertex="1" parent="1">
          <mxGeometry x="170" y="650" width="120" height="60" as="geometry" />
        </mxCell>
        <mxCell id="J5AI2GAW48L4zgALxvZB-101" value="" style="edgeStyle=orthogonalEdgeStyle;rounded=0;orthogonalLoop=1;jettySize=auto;html=1;fontSize=12;" edge="1" parent="1" source="J5AI2GAW48L4zgALxvZB-98" target="J5AI2GAW48L4zgALxvZB-100">
          <mxGeometry relative="1" as="geometry" />
        </mxCell>
        <mxCell id="J5AI2GAW48L4zgALxvZB-98" value="store the point as slab" style="shape=dataStorage;whiteSpace=wrap;html=1;fixedSize=1;" vertex="1" parent="1">
          <mxGeometry x="185" y="750" width="90" height="70" as="geometry" />
        </mxCell>
        <mxCell id="J5AI2GAW48L4zgALxvZB-163" style="edgeStyle=orthogonalEdgeStyle;rounded=0;orthogonalLoop=1;jettySize=auto;html=1;entryX=0;entryY=0.5;entryDx=0;entryDy=0;fontSize=12;" edge="1" parent="1" source="J5AI2GAW48L4zgALxvZB-100" target="J5AI2GAW48L4zgALxvZB-102">
          <mxGeometry relative="1" as="geometry" />
        </mxCell>
        <mxCell id="J5AI2GAW48L4zgALxvZB-100" value="increase the found slab count and get the remaining path distance" style="rounded=0;whiteSpace=wrap;html=1;fontSize=9;" vertex="1" parent="1">
          <mxGeometry x="170" y="850" width="120" height="60" as="geometry" />
        </mxCell>
        <mxCell id="J5AI2GAW48L4zgALxvZB-112" value="" style="edgeStyle=orthogonalEdgeStyle;rounded=0;orthogonalLoop=1;jettySize=auto;html=1;fontSize=12;" edge="1" parent="1" source="J5AI2GAW48L4zgALxvZB-102" target="J5AI2GAW48L4zgALxvZB-103">
          <mxGeometry relative="1" as="geometry" />
        </mxCell>
        <mxCell id="J5AI2GAW48L4zgALxvZB-102" value="IF remain dist &amp;lt; each each slab." style="rhombus;whiteSpace=wrap;html=1;fontSize=9;rounded=0;" vertex="1" parent="1">
          <mxGeometry x="340" y="545" width="80" height="80" as="geometry" />
        </mxCell>
        <mxCell id="J5AI2GAW48L4zgALxvZB-113" value="" style="edgeStyle=orthogonalEdgeStyle;rounded=0;orthogonalLoop=1;jettySize=auto;html=1;fontSize=12;" edge="1" parent="1" source="J5AI2GAW48L4zgALxvZB-103" target="J5AI2GAW48L4zgALxvZB-104">
          <mxGeometry relative="1" as="geometry" />
        </mxCell>
        <mxCell id="J5AI2GAW48L4zgALxvZB-103" value="&lt;font style=&quot;font-size: 12px&quot;&gt;calculate to be found remain slab&lt;/font&gt;" style="whiteSpace=wrap;html=1;fontSize=9;rounded=0;" vertex="1" parent="1">
          <mxGeometry x="320" y="665" width="120" height="60" as="geometry" />
        </mxCell>
        <mxCell id="J5AI2GAW48L4zgALxvZB-114" value="YES" style="edgeStyle=orthogonalEdgeStyle;rounded=0;orthogonalLoop=1;jettySize=auto;html=1;fontSize=12;" edge="1" parent="1" source="J5AI2GAW48L4zgALxvZB-104" target="J5AI2GAW48L4zgALxvZB-105">
          <mxGeometry relative="1" as="geometry">
            <Array as="points">
              <mxPoint x="380" y="835" />
              <mxPoint x="380" y="835" />
            </Array>
          </mxGeometry>
        </mxCell>
        <mxCell id="J5AI2GAW48L4zgALxvZB-115" value="" style="edgeStyle=orthogonalEdgeStyle;rounded=0;orthogonalLoop=1;jettySize=auto;html=1;fontSize=12;" edge="1" parent="1" source="J5AI2GAW48L4zgALxvZB-104" target="J5AI2GAW48L4zgALxvZB-106">
          <mxGeometry relative="1" as="geometry" />
        </mxCell>
        <mxCell id="J5AI2GAW48L4zgALxvZB-175" value="NO" style="edgeLabel;html=1;align=center;verticalAlign=middle;resizable=0;points=[];fontSize=12;" vertex="1" connectable="0" parent="J5AI2GAW48L4zgALxvZB-115">
          <mxGeometry x="-0.2985" y="3" relative="1" as="geometry">
            <mxPoint as="offset" />
          </mxGeometry>
        </mxCell>
        <mxCell id="J5AI2GAW48L4zgALxvZB-104" value="&lt;font style=&quot;font-size: 12px&quot;&gt;IF index &amp;lt; path length&lt;/font&gt;" style="rhombus;whiteSpace=wrap;html=1;fontSize=9;rounded=0;" vertex="1" parent="1">
          <mxGeometry x="340" y="750" width="80" height="80" as="geometry" />
        </mxCell>
        <mxCell id="J5AI2GAW48L4zgALxvZB-129" style="edgeStyle=orthogonalEdgeStyle;rounded=0;orthogonalLoop=1;jettySize=auto;html=1;entryX=0.5;entryY=0;entryDx=0;entryDy=0;fontSize=12;" edge="1" parent="1" source="J5AI2GAW48L4zgALxvZB-105" target="J5AI2GAW48L4zgALxvZB-123">
          <mxGeometry relative="1" as="geometry">
            <Array as="points">
              <mxPoint x="590" y="885" />
              <mxPoint x="590" y="540" />
              <mxPoint x="665" y="540" />
            </Array>
          </mxGeometry>
        </mxCell>
        <mxCell id="J5AI2GAW48L4zgALxvZB-105" value="&lt;span style=&quot;font-size: 12px&quot;&gt;increase the index and store the way point&lt;/span&gt;" style="whiteSpace=wrap;html=1;fontSize=9;rounded=0;" vertex="1" parent="1">
          <mxGeometry x="320" y="855" width="120" height="60" as="geometry" />
        </mxCell>
        <mxCell id="J5AI2GAW48L4zgALxvZB-116" value="" style="edgeStyle=orthogonalEdgeStyle;rounded=0;orthogonalLoop=1;jettySize=auto;html=1;fontSize=12;" edge="1" parent="1" source="J5AI2GAW48L4zgALxvZB-106" target="J5AI2GAW48L4zgALxvZB-107">
          <mxGeometry relative="1" as="geometry" />
        </mxCell>
        <mxCell id="J5AI2GAW48L4zgALxvZB-106" value="&lt;font style=&quot;font-size: 12px&quot;&gt;ELSE&lt;/font&gt;" style="rhombus;whiteSpace=wrap;html=1;fontSize=9;rounded=0;" vertex="1" parent="1">
          <mxGeometry x="480" y="680" width="80" height="80" as="geometry" />
        </mxCell>
        <mxCell id="J5AI2GAW48L4zgALxvZB-107" value="&lt;span style=&quot;font-size: 12px&quot;&gt;Set the starting point&lt;/span&gt;" style="whiteSpace=wrap;html=1;fontSize=9;rounded=0;" vertex="1" parent="1">
          <mxGeometry x="470" y="800" width="100" height="50" as="geometry" />
        </mxCell>
        <mxCell id="J5AI2GAW48L4zgALxvZB-130" value="YES" style="edgeStyle=orthogonalEdgeStyle;rounded=0;orthogonalLoop=1;jettySize=auto;html=1;fontSize=12;" edge="1" parent="1" source="J5AI2GAW48L4zgALxvZB-123" target="J5AI2GAW48L4zgALxvZB-124">
          <mxGeometry relative="1" as="geometry" />
        </mxCell>
        <mxCell id="J5AI2GAW48L4zgALxvZB-133" value="NO" style="edgeStyle=orthogonalEdgeStyle;rounded=0;orthogonalLoop=1;jettySize=auto;html=1;fontSize=12;" edge="1" parent="1" source="J5AI2GAW48L4zgALxvZB-123" target="J5AI2GAW48L4zgALxvZB-127">
          <mxGeometry relative="1" as="geometry">
            <Array as="points">
              <mxPoint x="720" y="600" />
              <mxPoint x="720" y="600" />
            </Array>
          </mxGeometry>
        </mxCell>
        <mxCell id="J5AI2GAW48L4zgALxvZB-123" value="&lt;span style=&quot;font-size: 12px&quot;&gt;IF pedestrain data not empty&lt;/span&gt;" style="rhombus;whiteSpace=wrap;html=1;fontSize=9;rounded=0;" vertex="1" parent="1">
          <mxGeometry x="625" y="560" width="80" height="80" as="geometry" />
        </mxCell>
        <mxCell id="J5AI2GAW48L4zgALxvZB-131" value="" style="edgeStyle=orthogonalEdgeStyle;rounded=0;orthogonalLoop=1;jettySize=auto;html=1;fontSize=12;" edge="1" parent="1" source="J5AI2GAW48L4zgALxvZB-124" target="J5AI2GAW48L4zgALxvZB-125">
          <mxGeometry relative="1" as="geometry" />
        </mxCell>
        <mxCell id="J5AI2GAW48L4zgALxvZB-124" value="&lt;span style=&quot;font-size: 12px&quot;&gt;FOR pedestrain data&lt;/span&gt;" style="rhombus;whiteSpace=wrap;html=1;fontSize=9;rounded=0;" vertex="1" parent="1">
          <mxGeometry x="625" y="670" width="80" height="80" as="geometry" />
        </mxCell>
        <mxCell id="J5AI2GAW48L4zgALxvZB-132" value="" style="edgeStyle=orthogonalEdgeStyle;rounded=0;orthogonalLoop=1;jettySize=auto;html=1;fontSize=12;" edge="1" parent="1" source="J5AI2GAW48L4zgALxvZB-125" target="J5AI2GAW48L4zgALxvZB-126">
          <mxGeometry relative="1" as="geometry" />
        </mxCell>
        <mxCell id="J5AI2GAW48L4zgALxvZB-135" style="edgeStyle=orthogonalEdgeStyle;rounded=0;orthogonalLoop=1;jettySize=auto;html=1;entryX=1;entryY=0.5;entryDx=0;entryDy=0;fontSize=12;" edge="1" parent="1" source="J5AI2GAW48L4zgALxvZB-125" target="J5AI2GAW48L4zgALxvZB-124">
          <mxGeometry relative="1" as="geometry">
            <Array as="points">
              <mxPoint x="666" y="850" />
              <mxPoint x="740" y="850" />
              <mxPoint x="740" y="710" />
            </Array>
          </mxGeometry>
        </mxCell>
        <mxCell id="J5AI2GAW48L4zgALxvZB-136" value="next data" style="edgeLabel;html=1;align=center;verticalAlign=middle;resizable=0;points=[];fontSize=12;" vertex="1" connectable="0" parent="J5AI2GAW48L4zgALxvZB-135">
          <mxGeometry x="0.5923" relative="1" as="geometry">
            <mxPoint as="offset" />
          </mxGeometry>
        </mxCell>
        <mxCell id="J5AI2GAW48L4zgALxvZB-125" value="&lt;font style=&quot;font-size: 12px&quot;&gt;store the pedestrain data&lt;/font&gt;" style="whiteSpace=wrap;html=1;fontSize=9;rounded=0;" vertex="1" parent="1">
          <mxGeometry x="606" y="780" width="120" height="60" as="geometry" />
        </mxCell>
        <mxCell id="J5AI2GAW48L4zgALxvZB-126" value="set the&amp;nbsp; starting and end point and remain length is 0" style="whiteSpace=wrap;html=1;fontSize=9;rounded=0;" vertex="1" parent="1">
          <mxGeometry x="606" y="880" width="120" height="60" as="geometry" />
        </mxCell>
        <mxCell id="J5AI2GAW48L4zgALxvZB-134" value="" style="edgeStyle=orthogonalEdgeStyle;rounded=0;orthogonalLoop=1;jettySize=auto;html=1;fontSize=12;" edge="1" parent="1" source="J5AI2GAW48L4zgALxvZB-127" target="J5AI2GAW48L4zgALxvZB-128">
          <mxGeometry relative="1" as="geometry" />
        </mxCell>
        <mxCell id="J5AI2GAW48L4zgALxvZB-127" value="&lt;font style=&quot;font-size: 12px&quot;&gt;ELSE&lt;/font&gt;" style="rhombus;whiteSpace=wrap;html=1;fontSize=9;rounded=0;" vertex="1" parent="1">
          <mxGeometry x="745" y="560" width="80" height="80" as="geometry" />
        </mxCell>
        <mxCell id="J5AI2GAW48L4zgALxvZB-128" value="&lt;font style=&quot;font-size: 12px&quot;&gt;store the path point as slab&lt;/font&gt;" style="whiteSpace=wrap;html=1;fontSize=9;rounded=0;" vertex="1" parent="1">
          <mxGeometry x="760" y="740" width="100" height="50" as="geometry" />
        </mxCell>
        <mxCell id="J5AI2GAW48L4zgALxvZB-137" value="&lt;span style=&quot;font-size: 12px&quot;&gt;increase the index and store the way point&lt;/span&gt;" style="whiteSpace=wrap;html=1;fontSize=9;rounded=0;" vertex="1" parent="1">
          <mxGeometry x="320" y="855" width="120" height="60" as="geometry" />
        </mxCell>
        <mxCell id="J5AI2GAW48L4zgALxvZB-138" value="&lt;span style=&quot;font-size: 12px&quot;&gt;IF pedestrain data not empty&lt;/span&gt;" style="rhombus;whiteSpace=wrap;html=1;fontSize=9;rounded=0;" vertex="1" parent="1">
          <mxGeometry x="625" y="560" width="80" height="80" as="geometry" />
        </mxCell>
        <mxCell id="J5AI2GAW48L4zgALxvZB-139" value="&lt;span style=&quot;font-size: 12px&quot;&gt;FOR pedestrain data&lt;/span&gt;" style="rhombus;whiteSpace=wrap;html=1;fontSize=9;rounded=0;" vertex="1" parent="1">
          <mxGeometry x="625" y="670" width="80" height="80" as="geometry" />
        </mxCell>
        <mxCell id="J5AI2GAW48L4zgALxvZB-140" value="&lt;font style=&quot;font-size: 12px&quot;&gt;store the pedestrain data&lt;/font&gt;" style="whiteSpace=wrap;html=1;fontSize=9;rounded=0;" vertex="1" parent="1">
          <mxGeometry x="606" y="780" width="120" height="60" as="geometry" />
        </mxCell>
        <mxCell id="J5AI2GAW48L4zgALxvZB-141" value="&lt;span style=&quot;font-size: 12px&quot;&gt;increase the index and store the way point&lt;/span&gt;" style="whiteSpace=wrap;html=1;fontSize=9;rounded=0;" vertex="1" parent="1">
          <mxGeometry x="320" y="855" width="120" height="60" as="geometry" />
        </mxCell>
        <mxCell id="J5AI2GAW48L4zgALxvZB-142" value="&lt;span style=&quot;font-size: 12px&quot;&gt;IF pedestrain data not empty&lt;/span&gt;" style="rhombus;whiteSpace=wrap;html=1;fontSize=9;rounded=0;" vertex="1" parent="1">
          <mxGeometry x="625" y="560" width="80" height="80" as="geometry" />
        </mxCell>
        <mxCell id="J5AI2GAW48L4zgALxvZB-143" value="&lt;span style=&quot;font-size: 12px&quot;&gt;FOR pedestrain data&lt;/span&gt;" style="rhombus;whiteSpace=wrap;html=1;fontSize=9;rounded=0;" vertex="1" parent="1">
          <mxGeometry x="625" y="670" width="80" height="80" as="geometry" />
        </mxCell>
        <mxCell id="J5AI2GAW48L4zgALxvZB-144" value="&lt;font style=&quot;font-size: 12px&quot;&gt;store the pedestrain data&lt;/font&gt;" style="whiteSpace=wrap;html=1;fontSize=9;rounded=0;" vertex="1" parent="1">
          <mxGeometry x="606" y="780" width="120" height="60" as="geometry" />
        </mxCell>
        <mxCell id="J5AI2GAW48L4zgALxvZB-145" value="set the&amp;nbsp; starting and end point and remain length is 0" style="whiteSpace=wrap;html=1;fontSize=9;rounded=0;" vertex="1" parent="1">
          <mxGeometry x="606" y="880" width="120" height="60" as="geometry" />
        </mxCell>
        <mxCell id="J5AI2GAW48L4zgALxvZB-146" value="&lt;span style=&quot;font-size: 12px&quot;&gt;increase the index and store the way point&lt;/span&gt;" style="whiteSpace=wrap;html=1;fontSize=9;rounded=0;" vertex="1" parent="1">
          <mxGeometry x="320" y="855" width="120" height="60" as="geometry" />
        </mxCell>
        <mxCell id="J5AI2GAW48L4zgALxvZB-147" value="&lt;span style=&quot;font-size: 12px&quot;&gt;IF pedestrain data not empty&lt;/span&gt;" style="rhombus;whiteSpace=wrap;html=1;fontSize=9;rounded=0;" vertex="1" parent="1">
          <mxGeometry x="625" y="560" width="80" height="80" as="geometry" />
        </mxCell>
        <mxCell id="J5AI2GAW48L4zgALxvZB-148" value="&lt;span style=&quot;font-size: 12px&quot;&gt;FOR pedestrain data&lt;/span&gt;" style="rhombus;whiteSpace=wrap;html=1;fontSize=9;rounded=0;" vertex="1" parent="1">
          <mxGeometry x="625" y="670" width="80" height="80" as="geometry" />
        </mxCell>
        <mxCell id="J5AI2GAW48L4zgALxvZB-149" value="&lt;font style=&quot;font-size: 12px&quot;&gt;store the pedestrain data&lt;/font&gt;" style="whiteSpace=wrap;html=1;fontSize=9;rounded=0;" vertex="1" parent="1">
          <mxGeometry x="606" y="780" width="120" height="60" as="geometry" />
        </mxCell>
        <mxCell id="J5AI2GAW48L4zgALxvZB-150" value="set the&amp;nbsp; starting and end point and remain length is 0" style="whiteSpace=wrap;html=1;fontSize=9;rounded=0;" vertex="1" parent="1">
          <mxGeometry x="606" y="880" width="120" height="60" as="geometry" />
        </mxCell>
        <mxCell id="J5AI2GAW48L4zgALxvZB-151" value="&lt;font style=&quot;font-size: 12px&quot;&gt;ELSE&lt;/font&gt;" style="rhombus;whiteSpace=wrap;html=1;fontSize=9;rounded=0;" vertex="1" parent="1">
          <mxGeometry x="745" y="560" width="80" height="80" as="geometry" />
        </mxCell>
        <mxCell id="J5AI2GAW48L4zgALxvZB-152" value="&lt;font style=&quot;font-size: 12px&quot;&gt;store the path point as slab&lt;/font&gt;" style="whiteSpace=wrap;html=1;fontSize=9;rounded=0;" vertex="1" parent="1">
          <mxGeometry x="1175" y="720" width="100" height="50" as="geometry" />
        </mxCell>
        <mxCell id="J5AI2GAW48L4zgALxvZB-164" style="edgeStyle=orthogonalEdgeStyle;rounded=0;orthogonalLoop=1;jettySize=auto;html=1;entryX=0.5;entryY=0;entryDx=0;entryDy=0;fontSize=12;" edge="1" parent="1" source="J5AI2GAW48L4zgALxvZB-153" target="J5AI2GAW48L4zgALxvZB-154">
          <mxGeometry relative="1" as="geometry">
            <Array as="points">
              <mxPoint x="1033" y="750" />
              <mxPoint x="1033" y="600" />
              <mxPoint x="1095" y="600" />
            </Array>
          </mxGeometry>
        </mxCell>
        <mxCell id="J5AI2GAW48L4zgALxvZB-153" value="&lt;span style=&quot;font-size: 12px&quot;&gt;increase the index and store the way point&lt;/span&gt;" style="whiteSpace=wrap;html=1;fontSize=9;rounded=0;" vertex="1" parent="1">
          <mxGeometry x="890" y="720" width="120" height="60" as="geometry" />
        </mxCell>
        <mxCell id="J5AI2GAW48L4zgALxvZB-167" value="yes" style="edgeStyle=orthogonalEdgeStyle;rounded=0;orthogonalLoop=1;jettySize=auto;html=1;fontSize=12;" edge="1" parent="1" source="J5AI2GAW48L4zgALxvZB-154" target="J5AI2GAW48L4zgALxvZB-155">
          <mxGeometry relative="1" as="geometry">
            <Array as="points">
              <mxPoint x="1100" y="720" />
              <mxPoint x="1100" y="720" />
            </Array>
          </mxGeometry>
        </mxCell>
        <mxCell id="J5AI2GAW48L4zgALxvZB-171" value="no" style="edgeStyle=orthogonalEdgeStyle;rounded=0;orthogonalLoop=1;jettySize=auto;html=1;entryX=0.047;entryY=0.593;entryDx=0;entryDy=0;entryPerimeter=0;fontSize=12;" edge="1" parent="1" source="J5AI2GAW48L4zgALxvZB-154" target="J5AI2GAW48L4zgALxvZB-158">
          <mxGeometry relative="1" as="geometry" />
        </mxCell>
        <mxCell id="J5AI2GAW48L4zgALxvZB-154" value="&lt;span style=&quot;font-size: 12px&quot;&gt;IF pedestrain data not empty&lt;/span&gt;" style="rhombus;whiteSpace=wrap;html=1;fontSize=9;rounded=0;" vertex="1" parent="1">
          <mxGeometry x="1056" y="630" width="80" height="80" as="geometry" />
        </mxCell>
        <mxCell id="J5AI2GAW48L4zgALxvZB-170" value="" style="edgeStyle=orthogonalEdgeStyle;rounded=0;orthogonalLoop=1;jettySize=auto;html=1;fontSize=12;" edge="1" parent="1" source="J5AI2GAW48L4zgALxvZB-155" target="J5AI2GAW48L4zgALxvZB-156">
          <mxGeometry relative="1" as="geometry" />
        </mxCell>
        <mxCell id="J5AI2GAW48L4zgALxvZB-155" value="&lt;span style=&quot;font-size: 12px&quot;&gt;FOR pedestrain data&lt;/span&gt;" style="rhombus;whiteSpace=wrap;html=1;fontSize=9;rounded=0;" vertex="1" parent="1">
          <mxGeometry x="1056" y="740" width="80" height="80" as="geometry" />
        </mxCell>
        <mxCell id="J5AI2GAW48L4zgALxvZB-173" value="" style="edgeStyle=orthogonalEdgeStyle;rounded=0;orthogonalLoop=1;jettySize=auto;html=1;fontSize=12;" edge="1" parent="1" source="J5AI2GAW48L4zgALxvZB-156" target="J5AI2GAW48L4zgALxvZB-157">
          <mxGeometry relative="1" as="geometry" />
        </mxCell>
        <mxCell id="J5AI2GAW48L4zgALxvZB-176" style="edgeStyle=orthogonalEdgeStyle;rounded=0;orthogonalLoop=1;jettySize=auto;html=1;entryX=1;entryY=0.5;entryDx=0;entryDy=0;fontSize=12;" edge="1" parent="1" source="J5AI2GAW48L4zgALxvZB-156" target="J5AI2GAW48L4zgALxvZB-155">
          <mxGeometry relative="1" as="geometry">
            <Array as="points">
              <mxPoint x="1170" y="880" />
              <mxPoint x="1170" y="780" />
            </Array>
          </mxGeometry>
        </mxCell>
        <mxCell id="J5AI2GAW48L4zgALxvZB-177" value="Next data" style="edgeLabel;html=1;align=center;verticalAlign=middle;resizable=0;points=[];fontSize=12;" vertex="1" connectable="0" parent="J5AI2GAW48L4zgALxvZB-176">
          <mxGeometry x="0.0568" relative="1" as="geometry">
            <mxPoint as="offset" />
          </mxGeometry>
        </mxCell>
        <mxCell id="J5AI2GAW48L4zgALxvZB-156" value="&lt;font style=&quot;font-size: 12px&quot;&gt;store the pedestrain data&lt;/font&gt;" style="whiteSpace=wrap;html=1;fontSize=9;rounded=0;" vertex="1" parent="1">
          <mxGeometry x="1036" y="850" width="120" height="60" as="geometry" />
        </mxCell>
        <mxCell id="J5AI2GAW48L4zgALxvZB-157" value="set the&amp;nbsp; starting and end point and remain length is 0" style="whiteSpace=wrap;html=1;fontSize=9;rounded=0;" vertex="1" parent="1">
          <mxGeometry x="1036" y="930" width="120" height="60" as="geometry" />
        </mxCell>
        <mxCell id="J5AI2GAW48L4zgALxvZB-172" value="" style="edgeStyle=orthogonalEdgeStyle;rounded=0;orthogonalLoop=1;jettySize=auto;html=1;fontSize=12;" edge="1" parent="1" source="J5AI2GAW48L4zgALxvZB-158" target="J5AI2GAW48L4zgALxvZB-152">
          <mxGeometry relative="1" as="geometry" />
        </mxCell>
        <mxCell id="J5AI2GAW48L4zgALxvZB-158" value="&lt;font style=&quot;font-size: 12px&quot;&gt;ELSE&lt;/font&gt;" style="rhombus;whiteSpace=wrap;html=1;fontSize=9;rounded=0;" vertex="1" parent="1">
          <mxGeometry x="1175" y="610" width="80" height="80" as="geometry" />
        </mxCell>
        <mxCell id="J5AI2GAW48L4zgALxvZB-161" value="" style="edgeStyle=orthogonalEdgeStyle;rounded=0;orthogonalLoop=1;jettySize=auto;html=1;fontSize=12;" edge="1" parent="1" source="J5AI2GAW48L4zgALxvZB-160" target="J5AI2GAW48L4zgALxvZB-153">
          <mxGeometry relative="1" as="geometry" />
        </mxCell>
        <mxCell id="J5AI2GAW48L4zgALxvZB-160" value="ELSE" style="rhombus;whiteSpace=wrap;html=1;fontSize=12;" vertex="1" parent="1">
          <mxGeometry x="890" y="600" width="80" height="80" as="geometry" />
        </mxCell>
        <mxCell id="J5AI2GAW48L4zgALxvZB-182" value="" style="edgeStyle=orthogonalEdgeStyle;rounded=0;orthogonalLoop=1;jettySize=auto;html=1;fontSize=12;" edge="1" parent="1" source="J5AI2GAW48L4zgALxvZB-178" target="J5AI2GAW48L4zgALxvZB-181">
          <mxGeometry relative="1" as="geometry" />
        </mxCell>
        <mxCell id="J5AI2GAW48L4zgALxvZB-178" value="ELSE" style="rhombus;whiteSpace=wrap;html=1;rounded=0;" vertex="1" parent="1">
          <mxGeometry x="85" y="1100" width="80" height="80" as="geometry" />
        </mxCell>
        <mxCell id="J5AI2GAW48L4zgALxvZB-184" value="" style="edgeStyle=orthogonalEdgeStyle;rounded=0;orthogonalLoop=1;jettySize=auto;html=1;fontSize=12;" edge="1" parent="1" source="J5AI2GAW48L4zgALxvZB-181" target="J5AI2GAW48L4zgALxvZB-183">
          <mxGeometry relative="1" as="geometry">
            <Array as="points">
              <mxPoint x="210" y="1300" />
              <mxPoint x="210" y="1020" />
            </Array>
          </mxGeometry>
        </mxCell>
        <mxCell id="J5AI2GAW48L4zgALxvZB-226" value="" style="edgeStyle=orthogonalEdgeStyle;rounded=0;orthogonalLoop=1;jettySize=auto;html=1;fontSize=12;" edge="1" parent="1" source="J5AI2GAW48L4zgALxvZB-181" target="J5AI2GAW48L4zgALxvZB-225">
          <mxGeometry relative="1" as="geometry" />
        </mxCell>
        <mxCell id="J5AI2GAW48L4zgALxvZB-181" value="initialize the some variables" style="whiteSpace=wrap;html=1;rounded=0;" vertex="1" parent="1">
          <mxGeometry x="65" y="1270" width="120" height="60" as="geometry" />
        </mxCell>
        <mxCell id="J5AI2GAW48L4zgALxvZB-189" value="" style="edgeStyle=orthogonalEdgeStyle;rounded=0;orthogonalLoop=1;jettySize=auto;html=1;fontSize=12;" edge="1" parent="1" source="J5AI2GAW48L4zgALxvZB-183" target="J5AI2GAW48L4zgALxvZB-187">
          <mxGeometry relative="1" as="geometry" />
        </mxCell>
        <mxCell id="J5AI2GAW48L4zgALxvZB-183" value="FOR path array&amp;nbsp;" style="rhombus;whiteSpace=wrap;html=1;rounded=0;" vertex="1" parent="1">
          <mxGeometry x="240" y="980" width="80" height="80" as="geometry" />
        </mxCell>
        <mxCell id="J5AI2GAW48L4zgALxvZB-191" value="" style="edgeStyle=orthogonalEdgeStyle;rounded=0;orthogonalLoop=1;jettySize=auto;html=1;fontSize=12;" edge="1" parent="1" source="J5AI2GAW48L4zgALxvZB-187" target="J5AI2GAW48L4zgALxvZB-190">
          <mxGeometry relative="1" as="geometry" />
        </mxCell>
        <mxCell id="J5AI2GAW48L4zgALxvZB-187" value="call&amp;nbsp;findDistance bwt current point and next point" style="rounded=1;whiteSpace=wrap;html=1;fillColor=#f8cecc;gradientColor=#ea6b66;strokeColor=#b85450;" vertex="1" parent="1">
          <mxGeometry x="220" y="1100" width="120" height="60" as="geometry" />
        </mxCell>
        <mxCell id="J5AI2GAW48L4zgALxvZB-192" style="edgeStyle=orthogonalEdgeStyle;rounded=0;orthogonalLoop=1;jettySize=auto;html=1;entryX=1;entryY=0.5;entryDx=0;entryDy=0;fontSize=12;" edge="1" parent="1" source="J5AI2GAW48L4zgALxvZB-190" target="J5AI2GAW48L4zgALxvZB-183">
          <mxGeometry relative="1" as="geometry">
            <Array as="points">
              <mxPoint x="360" y="1240" />
              <mxPoint x="360" y="1020" />
            </Array>
          </mxGeometry>
        </mxCell>
        <mxCell id="J5AI2GAW48L4zgALxvZB-193" value="next path data" style="edgeLabel;html=1;align=center;verticalAlign=middle;resizable=0;points=[];fontSize=12;" vertex="1" connectable="0" parent="J5AI2GAW48L4zgALxvZB-192">
          <mxGeometry x="0.31" y="-1" relative="1" as="geometry">
            <mxPoint as="offset" />
          </mxGeometry>
        </mxCell>
        <mxCell id="J5AI2GAW48L4zgALxvZB-200" value="" style="edgeStyle=orthogonalEdgeStyle;rounded=0;orthogonalLoop=1;jettySize=auto;html=1;fontSize=12;" edge="1" parent="1" source="J5AI2GAW48L4zgALxvZB-190" target="J5AI2GAW48L4zgALxvZB-194">
          <mxGeometry relative="1" as="geometry" />
        </mxCell>
        <mxCell id="J5AI2GAW48L4zgALxvZB-190" value="add distance into total and set the key against each dist" style="rounded=0;whiteSpace=wrap;html=1;" vertex="1" parent="1">
          <mxGeometry x="220" y="1210" width="120" height="60" as="geometry" />
        </mxCell>
        <mxCell id="J5AI2GAW48L4zgALxvZB-197" style="edgeStyle=orthogonalEdgeStyle;rounded=0;orthogonalLoop=1;jettySize=auto;html=1;entryX=0.5;entryY=0;entryDx=0;entryDy=0;fontSize=12;" edge="1" parent="1" source="J5AI2GAW48L4zgALxvZB-194" target="J5AI2GAW48L4zgALxvZB-195">
          <mxGeometry relative="1" as="geometry" />
        </mxCell>
        <mxCell id="J5AI2GAW48L4zgALxvZB-194" value="calculate the slap count and each slop distance" style="whiteSpace=wrap;html=1;rounded=0;" vertex="1" parent="1">
          <mxGeometry x="220" y="1310" width="120" height="60" as="geometry" />
        </mxCell>
        <mxCell id="J5AI2GAW48L4zgALxvZB-202" value="" style="edgeStyle=orthogonalEdgeStyle;rounded=0;orthogonalLoop=1;jettySize=auto;html=1;fontSize=12;" edge="1" parent="1" source="J5AI2GAW48L4zgALxvZB-195" target="J5AI2GAW48L4zgALxvZB-201">
          <mxGeometry relative="1" as="geometry" />
        </mxCell>
        <mxCell id="J5AI2GAW48L4zgALxvZB-195" value="initialize some variable and values" style="whiteSpace=wrap;html=1;rounded=0;" vertex="1" parent="1">
          <mxGeometry x="425" y="1000" width="120" height="60" as="geometry" />
        </mxCell>
        <mxCell id="J5AI2GAW48L4zgALxvZB-205" value="" style="edgeStyle=orthogonalEdgeStyle;rounded=0;orthogonalLoop=1;jettySize=auto;html=1;fontSize=12;" edge="1" parent="1" source="J5AI2GAW48L4zgALxvZB-201" target="J5AI2GAW48L4zgALxvZB-203">
          <mxGeometry relative="1" as="geometry" />
        </mxCell>
        <mxCell id="J5AI2GAW48L4zgALxvZB-201" value="WHILE total slab count &amp;gt; found slab count" style="rhombus;whiteSpace=wrap;html=1;rounded=0;" vertex="1" parent="1">
          <mxGeometry x="445" y="1090" width="80" height="80" as="geometry" />
        </mxCell>
        <mxCell id="J5AI2GAW48L4zgALxvZB-206" value="" style="edgeStyle=orthogonalEdgeStyle;rounded=0;orthogonalLoop=1;jettySize=auto;html=1;fontSize=12;" edge="1" parent="1" source="J5AI2GAW48L4zgALxvZB-203" target="J5AI2GAW48L4zgALxvZB-204">
          <mxGeometry relative="1" as="geometry" />
        </mxCell>
        <mxCell id="J5AI2GAW48L4zgALxvZB-203" value="IF each slab distance is 0" style="rhombus;whiteSpace=wrap;html=1;rounded=0;" vertex="1" parent="1">
          <mxGeometry x="445" y="1200" width="80" height="90" as="geometry" />
        </mxCell>
        <mxCell id="J5AI2GAW48L4zgALxvZB-209" style="edgeStyle=orthogonalEdgeStyle;rounded=0;orthogonalLoop=1;jettySize=auto;html=1;entryX=0.5;entryY=0;entryDx=0;entryDy=0;fontSize=12;" edge="1" parent="1" source="J5AI2GAW48L4zgALxvZB-204" target="J5AI2GAW48L4zgALxvZB-207">
          <mxGeometry relative="1" as="geometry" />
        </mxCell>
        <mxCell id="J5AI2GAW48L4zgALxvZB-204" value="set the sab" style="whiteSpace=wrap;html=1;rounded=0;" vertex="1" parent="1">
          <mxGeometry x="425" y="1310" width="120" height="60" as="geometry" />
        </mxCell>
        <mxCell id="J5AI2GAW48L4zgALxvZB-211" value="" style="edgeStyle=orthogonalEdgeStyle;rounded=0;orthogonalLoop=1;jettySize=auto;html=1;fontSize=12;" edge="1" parent="1" source="J5AI2GAW48L4zgALxvZB-207" target="J5AI2GAW48L4zgALxvZB-208">
          <mxGeometry relative="1" as="geometry" />
        </mxCell>
        <mxCell id="J5AI2GAW48L4zgALxvZB-207" value="&lt;font style=&quot;font-size: 9px&quot;&gt;call&amp;nbsp;shortenLineDistance&lt;/font&gt;" style="rounded=1;whiteSpace=wrap;html=1;fillColor=#f8cecc;gradientColor=#ea6b66;strokeColor=#b85450;" vertex="1" parent="1">
          <mxGeometry x="625" y="990" width="120" height="60" as="geometry" />
        </mxCell>
        <mxCell id="J5AI2GAW48L4zgALxvZB-212" value="" style="edgeStyle=orthogonalEdgeStyle;rounded=0;orthogonalLoop=1;jettySize=auto;html=1;fontSize=12;" edge="1" parent="1" source="J5AI2GAW48L4zgALxvZB-208" target="J5AI2GAW48L4zgALxvZB-210">
          <mxGeometry relative="1" as="geometry" />
        </mxCell>
        <mxCell id="J5AI2GAW48L4zgALxvZB-208" value="store the point as slab" style="shape=dataStorage;whiteSpace=wrap;html=1;fixedSize=1;" vertex="1" parent="1">
          <mxGeometry x="640" y="1080" width="90" height="70" as="geometry" />
        </mxCell>
        <mxCell id="J5AI2GAW48L4zgALxvZB-214" value="" style="edgeStyle=orthogonalEdgeStyle;rounded=0;orthogonalLoop=1;jettySize=auto;html=1;fontSize=12;" edge="1" parent="1" source="J5AI2GAW48L4zgALxvZB-210" target="J5AI2GAW48L4zgALxvZB-213">
          <mxGeometry relative="1" as="geometry" />
        </mxCell>
        <mxCell id="J5AI2GAW48L4zgALxvZB-210" value="increase the found slab count and get the remaining path distance" style="rounded=0;whiteSpace=wrap;html=1;fontSize=9;" vertex="1" parent="1">
          <mxGeometry x="625" y="1190" width="120" height="60" as="geometry" />
        </mxCell>
        <mxCell id="J5AI2GAW48L4zgALxvZB-216" value="" style="edgeStyle=orthogonalEdgeStyle;rounded=0;orthogonalLoop=1;jettySize=auto;html=1;fontSize=12;" edge="1" parent="1" source="J5AI2GAW48L4zgALxvZB-213" target="J5AI2GAW48L4zgALxvZB-215">
          <mxGeometry relative="1" as="geometry">
            <Array as="points">
              <mxPoint x="780" y="1315" />
              <mxPoint x="780" y="1020" />
            </Array>
          </mxGeometry>
        </mxCell>
        <mxCell id="J5AI2GAW48L4zgALxvZB-213" value="&lt;span style=&quot;font-size: 12px&quot;&gt;Set the starting point&lt;/span&gt;" style="whiteSpace=wrap;html=1;fontSize=9;rounded=0;" vertex="1" parent="1">
          <mxGeometry x="635" y="1290" width="100" height="50" as="geometry" />
        </mxCell>
        <mxCell id="J5AI2GAW48L4zgALxvZB-222" value="" style="edgeStyle=orthogonalEdgeStyle;rounded=0;orthogonalLoop=1;jettySize=auto;html=1;fontSize=12;" edge="1" parent="1" source="J5AI2GAW48L4zgALxvZB-215" target="J5AI2GAW48L4zgALxvZB-221">
          <mxGeometry relative="1" as="geometry" />
        </mxCell>
        <mxCell id="J5AI2GAW48L4zgALxvZB-215" value="&lt;font style=&quot;font-size: 12px&quot;&gt;IF total slab count -1 = current found count&lt;/font&gt;" style="rhombus;whiteSpace=wrap;html=1;fontSize=9;rounded=0;" vertex="1" parent="1">
          <mxGeometry x="811" y="980" width="80" height="80" as="geometry" />
        </mxCell>
        <mxCell id="J5AI2GAW48L4zgALxvZB-223" style="edgeStyle=orthogonalEdgeStyle;rounded=0;orthogonalLoop=1;jettySize=auto;html=1;entryX=1;entryY=0.5;entryDx=0;entryDy=0;fontSize=12;" edge="1" parent="1" source="J5AI2GAW48L4zgALxvZB-221" target="J5AI2GAW48L4zgALxvZB-201">
          <mxGeometry relative="1" as="geometry">
            <Array as="points">
              <mxPoint x="950" y="1140" />
              <mxPoint x="950" y="960" />
              <mxPoint x="570" y="960" />
              <mxPoint x="570" y="1130" />
            </Array>
          </mxGeometry>
        </mxCell>
        <mxCell id="J5AI2GAW48L4zgALxvZB-224" value="next slab count" style="edgeLabel;html=1;align=center;verticalAlign=middle;resizable=0;points=[];fontSize=12;" vertex="1" connectable="0" parent="J5AI2GAW48L4zgALxvZB-223">
          <mxGeometry x="-0.601" y="-2" relative="1" as="geometry">
            <mxPoint as="offset" />
          </mxGeometry>
        </mxCell>
        <mxCell id="J5AI2GAW48L4zgALxvZB-221" value="store the point as slab" style="shape=dataStorage;whiteSpace=wrap;html=1;fixedSize=1;" vertex="1" parent="1">
          <mxGeometry x="806" y="1105" width="90" height="70" as="geometry" />
        </mxCell>
        <mxCell id="J5AI2GAW48L4zgALxvZB-228" value="" style="edgeStyle=orthogonalEdgeStyle;rounded=0;orthogonalLoop=1;jettySize=auto;html=1;fontSize=12;" edge="1" parent="1" source="J5AI2GAW48L4zgALxvZB-225" target="J5AI2GAW48L4zgALxvZB-227">
          <mxGeometry relative="1" as="geometry" />
        </mxCell>
        <mxCell id="J5AI2GAW48L4zgALxvZB-225" value="IF threshold wait is true" style="rhombus;whiteSpace=wrap;html=1;rounded=0;" vertex="1" parent="1">
          <mxGeometry x="85" y="1400" width="80" height="80" as="geometry" />
        </mxCell>
        <mxCell id="J5AI2GAW48L4zgALxvZB-230" value="" style="edgeStyle=orthogonalEdgeStyle;rounded=0;orthogonalLoop=1;jettySize=auto;html=1;fontSize=12;" edge="1" parent="1" source="J5AI2GAW48L4zgALxvZB-227" target="J5AI2GAW48L4zgALxvZB-229">
          <mxGeometry relative="1" as="geometry" />
        </mxCell>
        <mxCell id="J5AI2GAW48L4zgALxvZB-227" value="set the waittime is 2 sec" style="whiteSpace=wrap;html=1;rounded=0;" vertex="1" parent="1">
          <mxGeometry x="65" y="1520" width="120" height="60" as="geometry" />
        </mxCell>
        <mxCell id="J5AI2GAW48L4zgALxvZB-232" value="" style="edgeStyle=orthogonalEdgeStyle;rounded=0;orthogonalLoop=1;jettySize=auto;html=1;fontSize=12;entryX=0;entryY=0.5;entryDx=0;entryDy=0;" edge="1" parent="1" source="J5AI2GAW48L4zgALxvZB-229" target="J5AI2GAW48L4zgALxvZB-231">
          <mxGeometry relative="1" as="geometry" />
        </mxCell>
        <mxCell id="J5AI2GAW48L4zgALxvZB-251" value="" style="edgeStyle=orthogonalEdgeStyle;rounded=0;orthogonalLoop=1;jettySize=auto;html=1;fontSize=12;" edge="1" parent="1" source="J5AI2GAW48L4zgALxvZB-229" target="J5AI2GAW48L4zgALxvZB-250">
          <mxGeometry relative="1" as="geometry" />
        </mxCell>
        <mxCell id="J5AI2GAW48L4zgALxvZB-229" value="TIMEOUT slap wait time" style="rhombus;whiteSpace=wrap;html=1;rounded=0;" vertex="1" parent="1">
          <mxGeometry x="85" y="1630" width="80" height="80" as="geometry" />
        </mxCell>
        <mxCell id="J5AI2GAW48L4zgALxvZB-234" value="" style="edgeStyle=orthogonalEdgeStyle;rounded=0;orthogonalLoop=1;jettySize=auto;html=1;fontSize=12;" edge="1" parent="1" source="J5AI2GAW48L4zgALxvZB-231" target="J5AI2GAW48L4zgALxvZB-233">
          <mxGeometry relative="1" as="geometry" />
        </mxCell>
        <mxCell id="J5AI2GAW48L4zgALxvZB-231" value="get the already pop path and empty the path" style="whiteSpace=wrap;html=1;rounded=0;" vertex="1" parent="1">
          <mxGeometry x="250" y="1410" width="120" height="60" as="geometry" />
        </mxCell>
        <mxCell id="J5AI2GAW48L4zgALxvZB-236" value="" style="edgeStyle=orthogonalEdgeStyle;rounded=0;orthogonalLoop=1;jettySize=auto;html=1;fontSize=12;" edge="1" parent="1" source="J5AI2GAW48L4zgALxvZB-233" target="J5AI2GAW48L4zgALxvZB-235">
          <mxGeometry relative="1" as="geometry" />
        </mxCell>
        <mxCell id="J5AI2GAW48L4zgALxvZB-233" value="FOR slap point" style="rhombus;whiteSpace=wrap;html=1;rounded=0;" vertex="1" parent="1">
          <mxGeometry x="270" y="1500" width="80" height="80" as="geometry" />
        </mxCell>
        <mxCell id="J5AI2GAW48L4zgALxvZB-238" value="" style="edgeStyle=orthogonalEdgeStyle;rounded=0;orthogonalLoop=1;jettySize=auto;html=1;fontSize=12;entryX=0;entryY=0.5;entryDx=0;entryDy=0;" edge="1" parent="1" source="J5AI2GAW48L4zgALxvZB-235" target="J5AI2GAW48L4zgALxvZB-237">
          <mxGeometry relative="1" as="geometry" />
        </mxCell>
        <mxCell id="J5AI2GAW48L4zgALxvZB-235" value="store the each slab into pop path" style="shape=dataStorage;whiteSpace=wrap;html=1;fixedSize=1;fontSize=12;" vertex="1" parent="1">
          <mxGeometry x="265" y="1630" width="90" height="60" as="geometry" />
        </mxCell>
        <mxCell id="J5AI2GAW48L4zgALxvZB-240" value="" style="edgeStyle=orthogonalEdgeStyle;rounded=0;orthogonalLoop=1;jettySize=auto;html=1;fontSize=12;" edge="1" parent="1" source="J5AI2GAW48L4zgALxvZB-237" target="J5AI2GAW48L4zgALxvZB-239">
          <mxGeometry relative="1" as="geometry" />
        </mxCell>
        <mxCell id="J5AI2GAW48L4zgALxvZB-237" value="set the pop target of first slab&amp;nbsp;" style="whiteSpace=wrap;html=1;" vertex="1" parent="1">
          <mxGeometry x="420" y="1410" width="120" height="60" as="geometry" />
        </mxCell>
        <mxCell id="J5AI2GAW48L4zgALxvZB-242" value="" style="edgeStyle=orthogonalEdgeStyle;rounded=0;orthogonalLoop=1;jettySize=auto;html=1;fontSize=12;" edge="1" parent="1" source="J5AI2GAW48L4zgALxvZB-239" target="J5AI2GAW48L4zgALxvZB-241">
          <mxGeometry relative="1" as="geometry" />
        </mxCell>
        <mxCell id="J5AI2GAW48L4zgALxvZB-239" value="FOR pop grp" style="rhombus;whiteSpace=wrap;html=1;" vertex="1" parent="1">
          <mxGeometry x="440" y="1500" width="80" height="80" as="geometry" />
        </mxCell>
        <mxCell id="J5AI2GAW48L4zgALxvZB-244" value="" style="edgeStyle=orthogonalEdgeStyle;rounded=0;orthogonalLoop=1;jettySize=auto;html=1;fontSize=12;entryX=0;entryY=0.5;entryDx=0;entryDy=0;" edge="1" parent="1" source="J5AI2GAW48L4zgALxvZB-241" target="J5AI2GAW48L4zgALxvZB-243">
          <mxGeometry relative="1" as="geometry" />
        </mxCell>
        <mxCell id="J5AI2GAW48L4zgALxvZB-241" value="set the pop stop at slab as true" style="whiteSpace=wrap;html=1;" vertex="1" parent="1">
          <mxGeometry x="420" y="1620" width="120" height="60" as="geometry" />
        </mxCell>
        <mxCell id="J5AI2GAW48L4zgALxvZB-246" value="" style="edgeStyle=orthogonalEdgeStyle;rounded=0;orthogonalLoop=1;jettySize=auto;html=1;fontSize=12;" edge="1" parent="1" source="J5AI2GAW48L4zgALxvZB-243" target="J5AI2GAW48L4zgALxvZB-245">
          <mxGeometry relative="1" as="geometry" />
        </mxCell>
        <mxCell id="J5AI2GAW48L4zgALxvZB-243" value="IF pop is child/follower" style="rhombus;whiteSpace=wrap;html=1;" vertex="1" parent="1">
          <mxGeometry x="606" y="1390" width="80" height="80" as="geometry" />
        </mxCell>
        <mxCell id="J5AI2GAW48L4zgALxvZB-249" value="" style="edgeStyle=orthogonalEdgeStyle;rounded=0;orthogonalLoop=1;jettySize=auto;html=1;fontSize=12;" edge="1" parent="1" source="J5AI2GAW48L4zgALxvZB-245" target="J5AI2GAW48L4zgALxvZB-248">
          <mxGeometry relative="1" as="geometry" />
        </mxCell>
        <mxCell id="J5AI2GAW48L4zgALxvZB-245" value="set the pop target of first slab&amp;nbsp;" style="whiteSpace=wrap;html=1;" vertex="1" parent="1">
          <mxGeometry x="586" y="1500" width="120" height="60" as="geometry" />
        </mxCell>
        <mxCell id="J5AI2GAW48L4zgALxvZB-248" value="store leader path to child" style="shape=dataStorage;whiteSpace=wrap;html=1;fixedSize=1;fontSize=12;" vertex="1" parent="1">
          <mxGeometry x="600" y="1590" width="90" height="60" as="geometry" />
        </mxCell>
        <mxCell id="J5AI2GAW48L4zgALxvZB-250" value="end" style="ellipse;whiteSpace=wrap;html=1;rounded=0;" vertex="1" parent="1">
          <mxGeometry x="65" y="1750" width="120" height="60" as="geometry" />
        </mxCell>
      </root>
    </mxGraphModel>
  </diagram>
</mxfile>
